<svg id="Ebene_1" data-name="Ebene 1" xmlns="http://www.w3.org/2000/svg" viewBox="0 0 9206.88 4000.78"><path d="M5971.15,1666.75c72.14,39.13,128.39,92.94,169.56,161s62,144.71,62,229.49q0,128.4-62,231.94c-41.17,69.29-97.82,123.51-169.56,163.45-72.15,40-152.45,59.92-241.72,59.92s-169.57-19.56-241.72-59.1-128.4-94.16-169.57-163.46-62-147.15-62-232.75q0-127.17,62-229.49,61.76-102.1,169.57-161,107.61-58.7,241.72-58.69Q5863.33,1608.06,5971.15,1666.75ZM5612,1835.1q-55.64,33.63-88,92.94c-21.61,39.54-32.61,83.15-32.61,130.44,0,48.09,11,92.12,33,131.66s51.36,70.92,88,93.75a222.63,222.63,0,0,0,119.84,34.24c43.21,0,83.16-11.42,119-34.24,36.28-22.83,64.81-54.21,85.6-93.75s31.38-83.56,31.38-131.66c0-47.29-10.6-90.9-31.38-130.44s-49.32-70.52-85.6-92.94a222,222,0,0,0-119-33.83C5689.07,1801.67,5648.72,1812.68,5612,1835.1Z" transform="translate(-122.22)" style="fill:#a0292a"/><path d="M6770.08,1817.57c-53-17.53-97-26.09-132.89-26.09-28.12,0-50.54,5.3-66.85,15.49-16.3,10.6-24.45,25.68-24.45,45.66,0,19.15,6.93,35,21.19,48.1s31.8,23.23,52.58,31,51.36,17.94,92.53,30.58q91.11,26.28,150.41,52.58c39.54,17.53,73.38,44.43,101.91,80.3,28.13,36.28,42.39,83.56,42.39,141.85s-15.49,108-46.06,149.19c-31,41.17-73,72.15-126.77,92.94s-113.32,31.38-178.94,31.38q-108.84,0-216.45-37.9c-13.45-4.9-26.49-9.79-39.13-15.09-86.41-36.68-122.29-140.22-80.3-224.59l21.6-43.21q66,58.7,156.53,96.2c60.33,24.86,113.72,37.5,160.19,37.5,34.24,0,61.15-6.12,80.3-18.75,19.57-12.64,29.35-30.57,29.35-54.62,0-20-9.37-39.54-24.86-52.59-14.27-12.22-31.39-22-52.18-29.35q-33-11.61-92.93-28.12c-59.92-16.71-109.25-33.43-148.38-50.55s-72.55-42.79-100.68-77.44c-27.72-34.65-42-80.3-42-137.78,0-54.21,14.26-101.49,43.2-142.26q42.81-61.14,122.29-94.16c53-22,114.13-33,184.24-33a665.42,665.42,0,0,1,187.1,26.9l3.67,1.22c88.86,26.5,131.66,127.59,92.12,211.15l-19.57,41.58C6872.8,1857.52,6823.07,1835.1,6770.08,1817.57Z" transform="translate(-122.22)" style="fill:#a0292a"/><path d="M7269.41,1621.91h81.52v874.75H7122.67v-728A146.65,146.65,0,0,1,7269.41,1621.91Z" transform="translate(-122.22)" style="fill:#a0292a"/><path d="M7974.59,1817.57c-53-17.53-97-26.09-132.88-26.09-28.13,0-50.55,5.3-66.85,15.49-16.31,10.6-24.46,25.68-24.46,45.66,0,19.15,6.93,35,21.2,48.1s31.79,23.23,52.58,31,51.36,17.94,92.53,30.58q91.09,26.28,150.41,52.58c39.54,17.53,73.37,44.43,101.9,80.3,28.13,36.28,42.4,83.56,42.4,141.85s-15.49,108-46.07,149.19c-31,41.17-73,72.15-126.76,92.94s-113.32,31.38-178.95,31.38q-108.84,0-216.44-37.9-22.64-7.95-44-17.12c-83.56-35.88-118.21-136.15-77.85-217.67l23.64-48.1q66,58.7,156.52,96.2c60.33,24.86,113.73,37.5,160.2,37.5,34.24,0,61.14-6.12,80.3-18.75,19.57-12.64,29.35-30.57,29.35-54.62,0-20-9.38-39.54-24.87-52.59-14.26-12.22-31.38-22-52.17-29.35q-33-11.61-92.94-28.12c-59.92-16.71-109.24-33.43-148.37-50.55s-72.56-42.79-100.68-77.44c-27.72-34.65-42-80.3-42-137.78,0-54.21,14.27-101.49,43.21-142.26q42.8-61.14,122.28-94.16c53-22,114.14-33,184.25-33a665.35,665.35,0,0,1,187.09,26.9h0c90.5,26.49,135.74,127.58,95.8,212.78l-19.57,41.17C8076.9,1857.52,8027.17,1835.1,7974.59,1817.57Z" transform="translate(-122.22)" style="fill:#a0292a"/><path d="M8476.78,1621.91h98.64l253.13,511.57,195.66-397.43a204.51,204.51,0,0,1,183.84-114.14h121.06v874.75H9126.93l-1.22-553.95-223.38,466.72H8755.18l-224.6-466.72v553.95h-203.4V1771.51A149.44,149.44,0,0,1,8476.78,1621.91Z" transform="translate(-122.22)" style="fill:#a0292a"/><polygon points="4514.38 0 4946.86 0 5163.31 375.01 4946.86 749.61 4514.38 749.61 4297.93 375.01 4514.38 0" style="fill:#e9c53c"/><polygon points="3797.78 2031.98 4230.68 2031.98 4447.12 2406.99 4230.68 2781.59 3797.78 2781.59 3581.75 2406.99 3797.78 2031.98" style="fill:#d1753b"/><polygon points="3797.78 406.39 4230.68 406.39 4447.12 781.4 4230.68 1156.01 3797.78 1156.01 3581.75 781.4 3797.78 406.39" style="fill:#dc9f3f"/><polygon points="3081.6 1625.58 3514.49 1625.58 3730.53 2000.59 3514.49 2375.19 3081.6 2375.19 2865.15 2000.59 3081.6 1625.58" style="fill:#d1753b"/><polygon points="3081.6 812.79 3514.49 812.79 3730.53 1187.8 3514.49 1562.4 3081.6 1562.4 2865.15 1187.8 3081.6 812.79" style="fill:#dc9f3f"/><polygon points="2365.41 2844.77 2797.89 2844.77 3014.34 3219.78 2797.89 3594.38 2365.41 3594.38 2148.97 3219.78 2365.41 2844.77" style="fill:#a0292a"/><polygon points="2365.41 2031.98 2797.89 2031.98 3014.34 2406.99 2797.89 2781.59 2365.41 2781.59 2148.97 2406.99 2365.41 2031.98" style="fill:#d1753b"/><polygon points="2365.41 1219.19 2797.89 1219.19 3014.34 1594.2 2797.89 1968.8 2365.41 1968.8 2148.97 1594.2 2365.41 1219.19" style="fill:#dc9f3f"/><polygon points="2365.41 406.39 2797.89 406.39 3014.34 781.4 2797.89 1156.01 2365.41 1156.01 2148.97 781.4 2365.41 406.39" style="fill:#dc9f3f"/><polygon points="1649.23 3251.17 2081.71 3251.17 2298.15 3626.18 2081.71 4000.78 1649.23 4000.78 1432.78 3626.18 1649.23 3251.17" style="fill:#a0292a"/><polygon points="1649.23 2438.38 2081.71 2438.38 2298.15 2813.38 2081.71 3187.99 1649.23 3187.99 1432.78 2813.38 1649.23 2438.38" style="fill:#a0292a"/><polygon points="1649.23 1625.58 2081.71 1625.58 2298.15 2000.59 2081.71 2375.19 1649.23 2375.19 1432.78 2000.59 1649.23 1625.58" style="fill:#d1753b"/><polygon points="932.63 2844.77 1365.52 2844.77 1581.97 3219.78 1365.52 3594.38 932.63 3594.38 716.19 3219.78 932.63 2844.77" style="fill:#a0292a"/><polygon points="932.63 2031.98 1365.52 2031.98 1581.97 2406.99 1365.52 2781.59 932.63 2781.59 716.19 2406.99 932.63 2031.98" style="fill:#d1753b"/><polygon points="932.63 1219.19 1365.52 1219.19 1581.97 1594.2 1365.52 1968.8 932.63 1968.8 716.19 1594.2 932.63 1219.19" style="fill:#dc9f3f"/><polygon points="216.44 3251.17 649.34 3251.17 865.38 3626.18 649.34 4000.78 216.44 4000.78 0 3626.18 216.44 3251.17" style="fill:#a0292a"/><polygon points="216.44 0 649.34 0 865.38 375.01 649.34 749.61 216.44 749.61 0 375.01 216.44 0" style="fill:#e9c53c"/></svg>
