<?xml version="1.0" standalone="no"?>
<!DOCTYPE svg PUBLIC "-//W3C//DTD SVG 20010904//EN"
 "http://www.w3.org/TR/2001/REC-SVG-20010904/DTD/svg10.dtd">
<svg version="1.0" xmlns="http://www.w3.org/2000/svg"
 width="3127.000000pt" height="614.000000pt" viewBox="0 0 3127.000000 614.000000"
 preserveAspectRatio="xMidYMid meet">

<g transform="translate(0.000000,614.000000) scale(0.100000,-0.100000)"
fill="#000000" stroke="none">
<path d="M6079 4550 c-251 -23 -493 -110 -689 -248 -96 -68 -267 -244 -337
-347 -128 -190 -211 -402 -249 -635 -8 -52 -17 -96 -18 -97 -2 -2 -27 8 -57
21 -203 90 -483 138 -668 116 -239 -29 -430 -124 -584 -290 -214 -231 -271
-504 -162 -772 21 -52 22 -58 7 -58 -9 0 -69 -5 -132 -10 -723 -63 -1204 -296
-1390 -672 -46 -95 -80 -218 -80 -292 0 -122 60 -256 157 -353 l63 -61 -38 -6
c-20 -3 -100 -11 -177 -17 -87 -8 -132 -15 -120 -20 11 -4 153 -19 315 -33
261 -22 370 -31 685 -51 138 -9 657 -34 985 -47 425 -17 2502 -17 3125 0 259
7 634 17 835 22 426 12 1498 36 1980 46 368 7 380 9 380 64 0 56 -19 60 -275
61 -126 1 -323 5 -438 8 l-207 6 55 73 c116 155 175 322 175 498 0 245 -96
475 -262 629 -82 76 -154 119 -265 158 -82 29 -98 31 -231 31 l-144 1 6 35
c32 193 29 383 -10 533 -23 92 -95 233 -156 307 -90 109 -225 201 -358 246
-80 27 -233 24 -320 -5 -80 -27 -159 -71 -225 -123 l-50 -40 -7 69 c-22 215
-32 282 -64 412 -52 211 -107 342 -202 477 -147 208 -364 337 -602 359 -132
12 -167 12 -251 5z m292 -170 c468 -88 698 -500 699 -1248 l0 -144 51 44 c176
150 302 220 444 244 106 19 176 9 265 -36 144 -73 276 -251 332 -447 19 -66
22 -102 22 -233 0 -146 -13 -242 -51 -379 -5 -19 -3 -23 8 -19 8 3 56 12 107
19 214 30 445 -51 602 -211 76 -79 121 -150 158 -252 23 -64 26 -89 26 -208 1
-115 -2 -146 -22 -210 -34 -107 -101 -232 -177 -328 l-66 -83 -217 6 c-315 9
-1283 33 -1902 47 -725 17 -2651 17 -3060 0 -518 -21 -1224 -57 -1319 -68
l-53 -7 -67 70 c-159 166 -203 374 -116 550 22 45 59 97 94 132 152 156 450
291 793 361 129 27 420 60 523 60 44 0 86 4 94 9 11 7 3 30 -41 112 -31 57
-63 135 -73 174 -22 90 -23 232 -1 314 57 221 242 410 480 491 127 43 200 53
355 47 190 -7 320 -44 607 -173 8 -4 14 19 19 68 20 209 75 401 170 593 153
310 404 541 700 648 193 69 433 91 616 57z"/>
<path d="M18110 2935 l0 -1235 245 0 245 0 0 308 0 308 53 49 c28 28 72 69 97
92 l45 42 245 -399 245 -400 594 2 594 3 271 422 c149 233 273 423 276 423 3
0 125 -190 271 -423 l267 -422 321 -3 c177 -1 321 0 321 4 0 3 -191 291 -425
640 -234 349 -425 638 -425 643 0 5 176 271 390 590 215 320 390 583 390 586
0 3 -132 5 -294 5 l-293 0 -248 -390 c-136 -214 -251 -390 -254 -390 -3 0
-114 176 -246 390 l-239 390 -313 0 -314 0 52 -77 c29 -43 207 -307 396 -586
190 -279 343 -512 341 -516 -8 -23 -844 -1270 -849 -1268 -4 1 -172 250 -374
554 l-367 552 253 248 c140 136 292 285 339 330 l85 83 -290 0 -290 0 -310
-322 -310 -322 -3 662 -2 662 -245 0 -245 0 0 -1235z"/>
<path d="M12980 3760 l0 -270 -150 0 -150 0 0 -160 0 -159 148 -3 147 -3 5
-595 5 -595 24 -59 c48 -119 147 -190 310 -220 86 -16 372 -22 465 -10 l46 7
0 186 0 186 -127 0 c-141 0 -177 11 -210 62 -17 25 -18 70 -21 535 l-3 508
181 0 180 0 0 160 0 160 -180 0 -180 0 0 270 0 270 -245 0 -245 0 0 -270z"/>
<path d="M27990 3760 l0 -270 -150 0 -150 0 0 -160 0 -160 150 0 150 0 0 -547
c0 -323 4 -575 10 -613 13 -80 60 -180 103 -216 47 -40 142 -81 229 -98 80
-17 369 -22 462 -10 l46 7 0 186 0 186 -122 0 c-145 0 -185 14 -215 73 -17 34
-18 73 -18 532 l0 495 178 3 177 2 0 160 0 160 -180 0 -180 0 0 270 0 270
-245 0 -245 0 0 -270z"/>
<path d="M11568 3529 c-415 -36 -629 -224 -632 -554 -1 -156 50 -258 170 -340
90 -62 198 -102 388 -146 249 -56 359 -88 435 -124 69 -33 116 -78 127 -121
11 -42 -2 -112 -27 -148 -48 -70 -173 -126 -284 -126 -63 0 -175 27 -233 57
-85 43 -151 135 -152 211 l0 32 -235 0 -235 0 0 -22 c0 -13 7 -54 15 -93 51
-245 247 -418 545 -482 68 -14 127 -18 290 -17 189 1 213 3 305 27 347 92 519
301 502 612 -7 131 -33 194 -116 275 -110 108 -214 149 -591 234 -222 50 -293
74 -353 120 -113 86 -77 229 68 271 89 26 261 18 335 -17 83 -38 125 -90 144
-180 l6 -28 230 0 c265 0 243 -12 210 114 -28 110 -72 186 -149 259 -113 107
-262 164 -480 186 -113 12 -153 12 -283 0z"/>
<path d="M14775 3534 c-22 -2 -81 -11 -130 -19 -346 -56 -550 -239 -591 -527
l-6 -48 244 0 245 0 12 55 c19 83 64 144 135 180 57 29 65 30 190 30 149 0
189 -10 247 -62 74 -67 91 -202 35 -275 -47 -63 -154 -94 -421 -123 -317 -34
-485 -88 -597 -193 -100 -93 -140 -199 -140 -367 0 -133 22 -213 84 -305 72
-108 170 -171 329 -211 73 -19 103 -21 234 -16 123 4 166 10 240 31 110 33
204 82 272 142 50 43 53 44 57 22 2 -13 10 -51 17 -85 l12 -63 247 0 247 0
-18 53 c-34 102 -39 198 -39 765 0 595 -4 641 -51 733 -50 99 -178 193 -317
234 -122 36 -408 62 -537 49z m405 -1259 c-24 -125 -96 -223 -195 -265 -105
-45 -296 -45 -384 -1 -89 46 -132 141 -111 249 23 124 114 186 319 218 228 36
280 46 327 68 l49 23 3 -116 c2 -64 -2 -143 -8 -176z"/>
<path d="M16840 3533 c-154 -12 -310 -60 -418 -129 -238 -152 -369 -384 -403
-714 -43 -422 137 -784 473 -950 142 -69 215 -84 423 -84 138 0 196 4 248 17
344 87 552 315 612 670 l6 37 -235 0 -236 0 -6 -27 c-45 -207 -151 -312 -335
-333 -209 -24 -350 73 -425 294 -32 92 -48 230 -40 338 18 240 110 409 261
484 54 26 69 29 160 29 78 0 113 -5 159 -23 95 -35 162 -112 192 -221 l17 -61
239 0 238 0 0 23 c0 49 -42 191 -76 259 -52 103 -180 229 -289 285 -172 88
-355 122 -565 106z"/>
<path d="M23300 3530 c-94 -11 -146 -27 -223 -68 -68 -35 -148 -105 -200 -172
l-26 -35 -1 118 0 117 -235 0 -235 0 0 -1215 0 -1215 245 0 245 0 0 431 0 430
83 -84 c132 -134 263 -186 470 -187 394 -1 672 247 763 680 22 105 25 369 5
480 -20 114 -58 225 -109 325 -37 69 -67 110 -137 181 -78 79 -103 98 -185
137 -135 66 -311 95 -460 77z m130 -384 c99 -35 197 -139 240 -253 52 -139 63
-374 25 -532 -49 -201 -168 -321 -337 -339 -258 -27 -423 98 -482 367 -19 84
-22 295 -6 381 40 215 142 344 305 387 62 16 194 10 255 -11z"/>
<path d="M25227 3530 c-319 -37 -558 -203 -699 -485 -73 -145 -100 -267 -101
-455 -2 -199 37 -363 124 -517 57 -101 199 -246 289 -296 148 -80 332 -127
505 -127 265 0 474 78 621 232 89 92 135 168 193 316 l21 52 -215 0 -215 0
-19 -39 c-27 -53 -103 -118 -178 -152 -115 -53 -299 -54 -413 -3 -127 57 -213
198 -222 364 l-3 55 648 3 647 2 0 103 c0 311 -115 585 -318 760 -173 148
-413 215 -665 187z m216 -375 c131 -34 212 -124 256 -285 12 -41 21 -78 21
-82 0 -5 -182 -8 -405 -8 l-406 0 6 38 c24 138 97 251 197 304 89 46 228 60
331 33z"/>
<path d="M27472 3530 c-80 -11 -119 -24 -207 -68 -88 -43 -218 -171 -254 -249
-14 -29 -28 -53 -33 -53 -4 0 -8 74 -8 165 l0 165 -230 0 -230 0 0 -895 0
-895 245 0 245 0 0 465 c0 384 3 479 16 542 40 194 144 315 309 358 62 16 213
21 290 9 l45 -6 0 225 c0 253 7 231 -80 241 -25 2 -73 0 -108 -4z"/>
<path d="M29678 3530 c-227 -21 -381 -79 -488 -184 -150 -147 -195 -421 -97
-589 77 -131 235 -210 563 -281 389 -85 500 -142 512 -265 14 -153 -178 -266
-398 -232 -175 27 -274 113 -305 264 l-5 27 -231 0 -232 0 7 -60 c30 -267 216
-453 534 -533 76 -19 114 -21 302 -21 201 0 221 2 314 27 295 79 452 229 495
471 42 232 -39 406 -236 508 -104 54 -229 92 -472 143 -303 64 -411 127 -411
241 0 56 33 103 95 134 46 23 61 25 185 25 120 0 141 -3 187 -24 65 -29 118
-86 134 -143 6 -24 13 -49 15 -55 3 -10 58 -13 233 -13 l231 0 -7 48 c-8 67
-56 193 -92 245 -101 147 -295 241 -550 267 -113 11 -153 11 -283 0z"/>
</g>
</svg>
