<svg xmlns="http://www.w3.org/2000/svg" fill="none" viewBox="0 0 198 42" height="42" width="198">
<path fill="#512FC9" d="M24.5573 0.402171C24.7099 0.425901 24.8532 0.491431 24.9717 0.591673C25.0902 0.691914 25.1793 0.823051 25.2295 0.970901L25.2589 1.0794L26.2681 6.32572C27.618 6.85009 28.8907 7.55897 30.0508 8.43265L30.4742 8.76513L35.5702 7.00294C35.8985 6.85945 36.2493 6.9627 36.4965 7.24794C38.2487 9.23762 39.6726 11.6385 40.4986 14.1602C40.5607 14.3008 40.579 14.4572 40.5509 14.6086C40.5228 14.76 40.4497 14.899 40.3414 15.0072L40.2515 15.0824L36.2079 18.5648C36.353 19.3435 36.3945 20.1852 36.3945 21.0042C36.3945 21.6639 36.3669 22.3324 36.2822 22.9711L36.2079 23.4454L40.2515 26.9313C40.3918 27.0322 40.4931 27.1794 40.5382 27.3476C40.5833 27.5157 40.5693 27.6946 40.4986 27.8535C39.6744 30.3769 38.2522 32.7743 36.4982 34.7622C36.277 35.0177 35.9763 35.128 35.6808 35.0475L35.5702 35.009L30.4759 33.245C29.3579 34.1568 28.1085 34.9075 26.7744 35.478L26.2698 35.6845L25.2589 40.9343C25.224 41.1061 25.1381 41.263 25.0127 41.3841C24.8874 41.5051 24.7285 41.5844 24.5573 41.6115C23.2371 41.8565 21.9168 42 20.5569 42C19.1952 42 17.8749 41.8565 16.5547 41.6115C16.4019 41.5877 16.2584 41.5222 16.1397 41.422C16.0209 41.3218 15.9314 41.1907 15.8807 41.0428L15.8531 40.9343L14.8439 35.6845C13.4708 35.1618 12.1788 34.4422 11.0076 33.5478L10.6361 33.245L5.54177 35.009C5.21344 35.1525 4.86265 35.0492 4.61381 34.7622C2.85983 32.7743 1.43764 30.3769 0.613356 27.8535C0.551494 27.7128 0.533404 27.5565 0.561497 27.4052C0.58959 27.2538 0.662531 27.1148 0.77061 27.0065L0.860469 26.9313L4.90239 23.4454C4.7669 22.6391 4.70443 21.822 4.71576 21.0042C4.71576 20.3497 4.74168 19.6795 4.82636 19.039L4.90239 18.5665L0.85874 15.0824C0.718464 14.9815 0.617143 14.8343 0.572075 14.6661C0.527007 14.4979 0.540987 14.3191 0.611628 14.1602C1.43591 11.6385 2.8581 9.23762 4.61208 7.24794C4.70765 7.12693 4.83529 7.03599 4.98004 6.98579C5.1248 6.93558 5.28069 6.92818 5.42945 6.96445L5.54177 7.00119L10.6361 8.76338C11.7694 7.82884 13.033 7.0693 14.386 6.50946L14.8439 6.32397L15.8531 1.07765C15.8875 0.905616 15.9733 0.748431 16.0987 0.627322C16.2242 0.506212 16.3833 0.427013 16.5547 0.400421C19.1956 -0.133474 21.9147 -0.133474 24.5556 0.400421L24.5573 0.402171ZM137.579 14.4699C138.599 14.4699 139.54 14.6939 140.406 15.1437C141.292 15.6098 142.06 16.277 142.649 17.0931C143.278 17.9436 143.771 18.983 144.128 20.2132C144.486 21.4452 144.664 22.8399 144.664 24.4026C144.664 25.8638 144.462 27.213 144.052 28.4502C143.679 29.6213 143.099 30.7137 142.338 31.6736C141.622 32.5702 140.721 33.2986 139.699 33.8085C138.64 34.3294 137.476 34.5931 136.299 34.5785C135.279 34.5785 134.425 34.435 133.736 34.148C133.051 33.8644 132.414 33.4722 131.851 32.9861V40.4443H126.01V14.8427H129.627L129.805 14.8514C130.066 14.8656 130.319 14.9469 130.541 15.0877C130.794 15.2613 130.978 15.5206 131.059 15.8191L131.491 17.2436L131.78 16.9409C132.074 16.6451 132.385 16.3721 132.708 16.1184C134.101 15.0257 135.819 14.4444 137.581 14.4699H137.579ZM86.1781 15.1437C85.0386 14.7332 83.8363 14.5305 82.6269 14.5452C81.1304 14.5452 79.7895 14.8007 78.6023 15.3134C77.4629 15.7924 76.4307 16.4995 75.5678 17.3923C74.7309 18.2696 74.0773 19.3088 73.6462 20.4477C73.1974 21.6254 72.9705 22.8778 72.9775 24.1401C72.9775 25.8638 73.2367 27.3757 73.7603 28.6742C74.2804 29.9744 74.9906 31.0611 75.8892 31.9361C76.7878 32.8111 77.8368 33.469 79.036 33.9135C80.2353 34.3563 81.521 34.5785 82.8896 34.5785C83.5566 34.5785 84.2548 34.5313 84.9909 34.4385C85.7253 34.344 86.4598 34.176 87.1959 33.931C87.9303 33.6878 88.6475 33.3518 89.3439 32.9196C89.9418 32.5521 90.5051 32.0866 91.0339 31.5301L91.2949 31.2431L89.5996 29.1624C89.3594 28.8247 89.0086 28.655 88.5438 28.655C88.1913 28.655 87.856 28.7372 87.5363 28.8999C87.2149 29.0627 86.8624 29.2429 86.4805 29.4424C86.0588 29.6587 85.6208 29.8407 85.1706 29.9867C84.6799 30.1494 84.0958 30.2317 83.4184 30.2317C82.1483 30.2317 81.1114 29.8642 80.3079 29.1344C79.5579 28.452 79.0758 27.381 78.8615 25.9198L78.82 25.6013H90.0887C90.3531 25.6013 90.5691 25.5698 90.7384 25.5086C90.908 25.4465 91.0514 25.3272 91.1445 25.1708C91.2579 24.9691 91.3286 24.7456 91.3519 24.5146C91.3899 24.2399 91.4089 23.8846 91.4089 23.4471C91.4089 22.0472 91.1912 20.7942 90.7574 19.6883C90.3576 18.6354 89.7408 17.6809 88.9482 16.8884C88.1576 16.1142 87.2133 15.5194 86.1781 15.1437ZM113.872 14.5452C115.082 14.5303 116.285 14.733 117.425 15.1437C118.46 15.5189 119.404 16.113 120.195 16.8866C120.967 17.6496 121.57 18.584 122.004 19.6883C122.436 20.7942 122.654 22.0472 122.654 23.4471C122.654 23.8846 122.637 24.2399 122.597 24.5146C122.574 24.7456 122.503 24.9691 122.39 25.1708C122.297 25.327 122.154 25.4463 121.985 25.5086C121.775 25.5768 121.556 25.6082 121.335 25.6013H110.065L110.106 25.9198C110.321 27.381 110.803 28.452 111.555 29.1344C112.358 29.8659 113.395 30.2299 114.665 30.2299C115.342 30.2299 115.927 30.1494 116.416 29.9867C116.866 29.8413 117.304 29.6599 117.725 29.4442C118.109 29.2429 118.462 29.0627 118.781 28.9017C119.101 28.7372 119.438 28.6567 119.789 28.6567C120.255 28.6567 120.606 28.8247 120.845 29.1624L122.542 31.2431L122.279 31.5301C121.778 32.0651 121.21 32.5321 120.591 32.9196C119.892 33.3518 119.177 33.6895 118.443 33.9328C117.725 34.1723 116.987 34.3417 116.238 34.4385C115.501 34.5313 114.803 34.5785 114.136 34.5785C112.823 34.5884 111.519 34.3633 110.283 33.9135C109.108 33.486 108.035 32.8122 107.134 31.9361C106.236 31.0611 105.527 29.9762 105.005 28.676C104.483 27.3757 104.222 25.8638 104.222 24.1401C104.222 22.8399 104.447 21.6097 104.893 20.4477C105.324 19.3088 105.978 18.2696 106.815 17.3923C107.677 16.4997 108.708 15.7926 109.847 15.3134C111.034 14.8007 112.375 14.5434 113.87 14.5434L113.872 14.5452ZM160.552 15.2382C159.334 14.7762 157.984 14.5452 156.501 14.5452C155.005 14.5452 153.645 14.7762 152.42 15.2382C151.24 15.6717 150.162 16.348 149.254 17.2243C148.354 18.1086 147.654 19.1796 147.201 20.3637C146.717 21.5939 146.475 22.9781 146.475 24.5146C146.475 26.0633 146.717 27.4597 147.201 28.704C147.685 29.9464 148.369 31.0016 149.254 31.8713C150.162 32.753 151.239 33.4352 152.42 33.875C153.647 34.344 155.005 34.5785 156.501 34.5785C157.984 34.5785 159.335 34.344 160.552 33.875C161.725 33.4364 162.794 32.7539 163.69 31.8713C164.563 31.0016 165.242 29.9464 165.726 28.704C166.21 27.4615 166.451 26.0633 166.451 24.5146C166.451 22.9781 166.21 21.5939 165.726 20.3637C165.274 19.183 164.581 18.1129 163.69 17.2243C162.793 16.3471 161.724 15.6705 160.552 15.2382ZM192.194 9.20262V14.8812H196.943V18.8535H192.194V28.5062L192.201 28.6952C192.227 29.0609 192.336 29.3707 192.524 29.6227C192.744 29.9149 193.06 30.0619 193.475 30.0619C193.793 30.0689 194.107 29.9949 194.389 29.8467C194.496 29.7907 194.596 29.7417 194.691 29.6962C194.795 29.6506 194.908 29.6285 195.021 29.6314C195.172 29.6244 195.321 29.6674 195.445 29.7539C195.552 29.8344 195.661 29.9622 195.775 30.1372L197.546 32.8916L197.259 33.0963C196.565 33.564 195.804 33.9216 195.002 34.1568C194.059 34.4368 193.086 34.5785 192.08 34.5785C191.151 34.5785 190.332 34.4438 189.621 34.176C188.949 33.9314 188.338 33.5408 187.831 33.0316C187.339 32.5241 186.963 31.9136 186.729 31.2431C186.469 30.4903 186.341 29.6973 186.352 28.8999V18.8553H184.693L184.546 18.8465C184.313 18.8225 184.094 18.7238 183.92 18.5648C183.708 18.3723 183.601 18.0871 183.601 17.7108V15.4447L186.71 14.8444L187.86 10.1021L187.904 9.95859C188.083 9.45461 188.496 9.20262 189.141 9.20262H192.194ZM71.6209 11.9955V6.9732H49.7973V11.9955H57.5234V34.2793H63.8931V11.9955H71.6209ZM100.792 6.22422V34.2793H94.9514V6.22422H100.792ZM182.619 15.1069C182.078 14.6817 181.363 14.4699 180.471 14.4699C179.415 14.4699 178.441 14.7884 177.549 15.4254C176.705 16.0445 175.971 16.8043 175.379 17.6723L175.137 18.0293L174.817 16.2129C174.776 15.9956 174.716 15.7824 174.637 15.5759C174.575 15.411 174.472 15.2656 174.337 15.1542C174.191 15.0417 174.024 14.9617 173.846 14.9197C173.676 14.8788 173.502 14.8554 173.327 14.8497L173.12 14.8444H169.655V34.2793H175.496V22.3587C176.376 20.7347 177.582 19.9228 179.115 19.9228C179.555 19.9228 179.92 19.9508 180.209 20.0068C180.497 20.0627 180.748 20.0925 180.962 20.0925C181.213 20.0925 181.415 20.04 181.565 19.9333C181.697 19.8323 181.79 19.6892 181.831 19.5273L181.867 19.3803L182.619 15.1069ZM20.5551 8.71264C13.8364 8.71264 8.39652 14.2144 8.39652 21.0007C8.39652 27.787 13.8399 33.2888 20.5551 33.2888C27.2704 33.2888 32.7137 27.787 32.7137 21.0007C32.7137 14.2144 27.2704 8.71264 20.5534 8.71264H20.5551ZM134.386 19.0338C134.731 18.9515 135.117 18.9113 135.543 18.9113C136.01 18.9113 136.43 19.004 136.807 19.1913C137.183 19.3803 137.508 19.6883 137.778 20.1187C138.047 20.551 138.258 21.1162 138.409 21.8162C138.559 22.5162 138.635 23.3771 138.635 24.4026C138.635 25.4771 138.54 26.3888 138.353 27.1378C138.163 27.8885 137.904 28.4975 137.57 28.9664C137.237 29.4337 136.845 29.7749 136.392 29.9867C135.925 30.2021 135.417 30.3108 134.904 30.3051C134.339 30.3051 133.798 30.2089 133.283 30.0147C132.816 29.8321 132.393 29.5519 132.041 29.1922L131.851 28.9944V20.747C132.085 20.4654 132.336 20.1994 132.604 19.9508C132.851 19.7235 133.127 19.5315 133.425 19.3803C133.719 19.2298 134.04 19.1143 134.386 19.0338ZM156.501 18.8553C155.119 18.8553 154.108 19.3243 153.467 20.2605C152.826 21.1967 152.506 22.6282 152.506 24.5531C152.506 26.4763 152.826 27.9095 153.467 28.8527C154.106 29.7977 155.119 30.2684 156.501 30.2684C157.844 30.2684 158.834 29.7959 159.468 28.8527C160.103 27.9095 160.419 26.4763 160.419 24.5531C160.419 22.6282 160.103 21.1967 159.468 20.2605C158.834 19.3225 157.844 18.8553 156.501 18.8553ZM28.2502 19.2928V15.6354H12.8601V19.2928H18.7234V28.0775H22.3869V19.2928H28.2502ZM82.7393 18.5543C81.6212 18.5543 80.7485 18.8693 80.1195 19.501C79.4922 20.131 79.0775 21.041 78.8753 22.2274H86.1677C86.1688 21.7722 86.1089 21.3189 85.9897 20.88C85.8759 20.453 85.6771 20.054 85.4056 19.7075C85.1185 19.3509 84.7543 19.0659 84.3412 18.8745C83.9005 18.661 83.3665 18.5543 82.7393 18.5543ZM111.366 19.501C111.994 18.871 112.866 18.556 113.984 18.556C114.613 18.556 115.147 18.661 115.586 18.8728C116.027 19.0863 116.381 19.3628 116.652 19.7075C116.922 20.0505 117.117 20.4425 117.236 20.88C117.356 21.3175 117.414 21.7654 117.414 22.2274H110.122C110.322 21.041 110.737 20.1327 111.366 19.501Z" clip-rule="evenodd" fill-rule="evenodd"></path>
</svg>
