<?xml version="1.0" standalone="no"?>
<!DOCTYPE svg PUBLIC "-//W3C//DTD SVG 20010904//EN"
 "http://www.w3.org/TR/2001/REC-SVG-20010904/DTD/svg10.dtd">
<svg version="1.0" xmlns="http://www.w3.org/2000/svg"
 width="640.000000pt" height="215.000000pt" viewBox="0 0 640.000000 215.000000"
 preserveAspectRatio="xMidYMid meet">

<g transform="translate(0.000000,215.000000) scale(0.100000,-0.100000)"
fill="#000000" stroke="none">
<path d="M95 2058 c-57 -45 -55 -11 -55 -983 0 -972 -2 -938 55 -983 l28 -22
2959 0 c2606 0 2962 2 2988 15 64 33 60 -33 60 990 0 1023 4 957 -60 990 -26
13 -382 15 -2988 15 l-2959 0 -28 -22z m5931 -44 c12 -3 27 -17 33 -30 8 -18
11 -220 11 -689 l0 -665 -2980 0 -2980 0 0 675 c0 662 0 675 20 695 20 20 33
20 2948 20 1610 0 2937 -3 2948 -6z m-5587 -1539 c59 -30 81 -147 41 -213 -28
-45 -82 -68 -130 -53 -20 6 -46 21 -57 33 -41 43 -47 134 -14 196 25 47 105
66 160 37z m337 -18 c27 -31 32 -91 11 -118 -19 -25 -52 -39 -91 -39 -36 0
-36 0 -36 -45 0 -41 -2 -45 -25 -45 l-25 0 0 141 0 141 71 -4 c63 -3 74 -7 95
-31z m304 8 c0 -24 -2 -25 -65 -25 l-65 0 0 -35 0 -35 60 0 c53 0 60 -2 60
-20 0 -16 -8 -19 -57 -22 l-58 -3 0 -35 0 -35 63 -3 c54 -3 62 -6 62 -22 0
-18 -7 -20 -90 -20 l-90 0 0 133 c0 74 3 137 7 140 3 4 44 7 90 7 82 0 83 0
83 -25z m210 -60 l55 -84 5 82 c5 76 7 82 28 85 22 3 22 3 22 -137 0 -134 -1
-141 -20 -141 -14 0 -37 26 -77 87 l-58 86 -3 -86 c-3 -85 -3 -87 -27 -87
l-25 0 0 140 c0 139 0 140 23 140 17 0 35 -20 77 -85z m385 64 c12 -12 12 -17
0 -33 -12 -15 -17 -17 -29 -7 -21 18 -80 10 -84 -11 -2 -12 14 -26 56 -47 61
-31 72 -44 72 -87 0 -38 -16 -61 -51 -73 -34 -12 -90 -2 -122 21 -15 11 -16
16 -4 32 13 17 15 18 46 1 43 -22 84 -13 79 18 -2 15 -18 29 -50 44 -59 28
-82 61 -73 103 10 44 40 62 98 57 27 -2 55 -10 62 -18z m295 -4 c0 -22 -4 -25
-35 -25 l-35 0 0 -115 0 -115 -25 0 -25 0 0 115 0 115 -35 0 c-31 0 -35 3 -35
25 0 25 0 25 95 25 95 0 95 0 95 -25z m251 -110 c27 -71 48 -133 49 -137 0 -5
-11 -8 -24 -8 -18 0 -27 8 -35 30 -9 28 -13 30 -63 30 -50 0 -54 -2 -65 -30
-8 -20 -18 -30 -32 -30 -12 0 -21 3 -21 8 0 4 21 67 47 140 44 125 49 133 72
130 22 -3 30 -18 72 -133z m318 118 c20 -16 21 -20 7 -38 -12 -16 -17 -18 -27
-7 -23 22 -75 15 -98 -14 -37 -47 -23 -134 24 -156 21 -9 32 -8 59 5 30 14 36
14 46 1 17 -20 -2 -41 -49 -55 -49 -14 -103 7 -131 53 -17 27 -20 45 -17 97 3
58 6 66 40 97 30 28 45 34 81 34 27 0 52 -7 65 -17z m173 -50 l3 -66 50 66
c40 53 55 67 78 67 15 0 27 -3 27 -6 0 -3 -20 -30 -45 -61 -42 -51 -44 -57
-32 -77 36 -54 77 -124 77 -130 0 -3 -11 -6 -25 -6 -20 0 -33 12 -61 56 -34
54 -36 55 -55 38 -12 -11 -19 -30 -19 -56 0 -34 -3 -38 -25 -38 l-25 0 0 133
c0 74 3 137 7 140 3 4 14 7 24 7 15 0 19 -10 21 -67z m578 52 c37 -19 49 -59
28 -95 -14 -24 -13 -28 3 -49 26 -32 24 -67 -6 -96 -21 -22 -33 -25 -100 -25
l-75 0 0 140 0 140 60 0 c35 0 74 -7 90 -15z m332 -120 c26 -71 48 -133 48
-137 0 -5 -11 -8 -24 -8 -18 0 -27 8 -35 30 -9 28 -13 30 -65 30 -52 0 -55 -1
-61 -30 -5 -23 -12 -30 -31 -30 -13 0 -24 3 -24 8 0 4 21 67 47 140 45 124 50
133 72 130 21 -3 30 -19 73 -133z m317 109 c41 -34 44 -92 6 -130 l-25 -25 23
-37 c13 -20 27 -43 31 -49 5 -9 -1 -13 -22 -13 -25 0 -35 8 -56 45 -20 34 -33
45 -51 45 -23 0 -25 -4 -25 -45 0 -41 -2 -45 -25 -45 l-25 0 0 140 0 140 69 0
c60 0 74 -3 100 -26z m321 1 c0 -24 -2 -25 -65 -25 l-65 0 0 -35 0 -35 55 0
c48 0 55 -2 55 -20 0 -18 -7 -20 -55 -20 l-55 0 0 -40 0 -40 65 0 c58 0 65 -2
65 -20 0 -19 -7 -20 -90 -20 l-90 0 0 140 0 140 90 0 c89 0 90 0 90 -25z m351
-30 c17 -30 34 -57 38 -59 4 -3 22 22 40 55 26 47 37 59 57 59 l24 0 0 -140 0
-140 -25 0 c-24 0 -24 2 -27 88 l-3 87 -29 -52 c-16 -29 -32 -53 -35 -53 -4 0
-21 26 -38 58 l-33 57 0 -92 c0 -92 0 -93 -25 -93 l-25 0 0 140 0 140 25 0
c20 0 31 -11 56 -55z m459 30 c0 -24 -2 -25 -65 -25 l-65 0 0 -35 0 -35 55 0
c48 0 55 -2 55 -20 0 -18 -7 -20 -55 -20 l-55 0 0 -40 0 -40 65 0 c58 0 65 -2
65 -20 0 -19 -7 -20 -90 -20 l-90 0 0 140 0 140 90 0 c89 0 90 0 90 -25z m280
0 c0 -22 -4 -25 -35 -25 l-35 0 0 -115 0 -115 -25 0 -25 0 0 115 0 115 -35 0
c-31 0 -35 3 -35 25 0 25 0 25 95 25 95 0 95 0 95 -25z m253 -107 c26 -73 47
-136 47 -140 0 -5 -11 -8 -24 -8 -19 0 -26 7 -31 30 -6 29 -9 30 -61 30 -52 0
-56 -2 -65 -30 -8 -22 -17 -30 -35 -30 -13 0 -24 2 -24 4 0 4 70 200 89 249 7
18 18 27 33 27 21 0 29 -15 71 -132z m197 17 l0 -115 60 0 c58 0 60 -1 60 -25
0 -26 0 -26 -82 -23 l-83 3 -3 124 c-1 69 0 131 2 138 3 7 15 13 26 13 19 0
20 -6 20 -115z"/>
<path d="M5400 1895 c-181 -41 -320 -172 -381 -357 -21 -64 -24 -91 -24 -223
0 -162 8 -202 62 -311 142 -292 554 -366 797 -143 31 28 56 56 56 63 0 6 -40
51 -88 99 l-88 87 -29 -31 c-43 -45 -120 -79 -180 -79 -93 1 -164 52 -208 150
-28 63 -36 226 -13 301 53 185 238 246 375 123 l47 -42 93 99 94 100 -34 35
c-112 115 -307 168 -479 129z"/>
<path d="M260 1320 l0 -570 145 0 145 0 0 570 0 570 -145 0 -145 0 0 -570z"/>
<path d="M780 1320 l0 -570 145 0 145 0 2 178 3 177 46 3 c57 4 53 8 169 -205
l82 -153 164 0 165 0 -12 23 c-7 12 -59 105 -117 206 -82 143 -102 185 -91
191 135 77 195 194 187 364 -5 111 -36 183 -104 246 -100 92 -185 110 -526
110 l-258 0 0 -570z m527 296 c65 -33 89 -112 59 -191 -27 -70 -67 -89 -190
-90 l-101 0 -3 140 c-1 76 0 145 3 153 8 21 187 12 232 -12z"/>
<path d="M1952 1870 c-18 -11 -37 -32 -42 -46 -6 -14 -10 -86 -10 -160 l0
-134 130 0 130 0 0 25 c0 14 11 37 25 50 l24 25 281 0 c267 0 281 -1 300 -20
11 -11 20 -33 20 -50 l0 -30 130 0 130 0 0 145 0 145 -29 32 -29 33 -514 3
c-499 2 -514 2 -546 -18z"/>
<path d="M3310 1320 l0 -570 140 0 140 0 0 295 c0 162 3 295 8 295 4 0 94
-133 201 -295 l194 -295 128 0 129 0 0 570 0 570 -140 0 -140 0 -2 -287 -3
-288 -191 285 -191 285 -136 3 -137 3 0 -571z"/>
<path d="M4480 1320 l0 -570 145 0 145 0 0 570 0 570 -145 0 -145 0 0 -570z"/>
<path d="M1900 1320 l0 -130 130 0 130 0 0 130 0 130 -130 0 -130 0 0 -130z"/>
<path d="M2810 1320 l0 -130 130 0 130 0 0 130 0 130 -130 0 -130 0 0 -130z"/>
<path d="M1902 960 c3 -148 3 -150 31 -177 l27 -28 508 -3 c279 -1 518 0 530
3 13 3 35 18 48 32 23 25 24 31 24 174 l0 149 -130 0 -130 0 0 -30 c0 -17 -9
-39 -20 -50 -19 -19 -33 -20 -301 -20 -173 0 -288 4 -300 10 -11 7 -21 26 -25
50 l-7 40 -129 0 -129 0 3 -150z"/>
<path d="M326 418 c-9 -13 -16 -43 -16 -71 0 -84 64 -124 115 -72 37 36 32
130 -9 157 -24 16 -75 8 -90 -14z"/>
<path d="M660 389 l0 -52 37 6 c39 7 53 20 53 53 0 29 -19 44 -57 44 l-33 0 0
-51z"/>
<path d="M2128 365 l-17 -45 35 0 c32 0 35 2 28 23 -11 37 -23 67 -27 67 -1 0
-10 -20 -19 -45z"/>
<path d="M3190 406 c0 -33 3 -36 28 -36 16 0 37 6 48 14 28 22 7 50 -40 54
-35 3 -36 2 -36 -32z"/>
<path d="M3190 290 c0 -36 3 -40 24 -40 42 0 76 18 76 39 0 25 -28 41 -69 41
-29 0 -31 -2 -31 -40z"/>
<path d="M3529 365 l-17 -45 35 0 c31 0 34 2 27 23 -11 36 -23 67 -26 67 -2 0
-10 -20 -19 -45z"/>
<path d="M3820 395 c0 -44 1 -45 31 -45 42 0 69 17 69 43 0 33 -19 47 -62 47
l-38 0 0 -45z"/>
<path d="M5516 376 c-22 -52 -21 -56 14 -56 33 0 35 7 16 60 l-13 35 -17 -39z"/>
<path d="M6229 225 c-53 -29 -57 -104 -7 -139 71 -50 163 27 123 104 -15 28
-50 51 -78 50 -7 -1 -24 -7 -38 -15z m90 -31 c26 -33 26 -55 3 -85 -26 -31
-78 -31 -104 0 -23 30 -23 52 3 85 28 35 70 35 98 0z"/>
<path d="M6240 150 c0 -22 5 -40 10 -40 6 0 10 7 10 17 0 15 1 15 18 0 17 -15
18 -14 19 23 2 38 0 40 -28 40 -27 0 -29 -2 -29 -40z m48 18 c-6 -18 -28 -21
-28 -4 0 9 7 16 16 16 9 0 14 -5 12 -12z"/>
</g>
</svg>
