<?xml version="1.0" encoding="UTF-8" standalone="no"?>
<svg
   xmlns:dc="http://purl.org/dc/elements/1.1/"
   xmlns:cc="http://creativecommons.org/ns#"
   xmlns:rdf="http://www.w3.org/1999/02/22-rdf-syntax-ns#"
   xmlns:svg="http://www.w3.org/2000/svg"
   xmlns="http://www.w3.org/2000/svg"
   viewBox="0 0 1512 1133.76"
   height="1133.76"
   width="1512"
   xml:space="preserve"
   id="svg2"
   version="1.1"><metadata
     id="metadata8"><rdf:RDF><cc:Work
         rdf:about=""><dc:format>image/svg+xml</dc:format><dc:type
           rdf:resource="http://purl.org/dc/dcmitype/StillImage" /></cc:Work></rdf:RDF></metadata><defs
     id="defs6"><clipPath
       id="clipPath18"
       clipPathUnits="userSpaceOnUse"><path
         id="path16"
         d="M 0,850.32 H 1134 V 0 H 0 Z" /></clipPath><linearGradient
       id="linearGradient60"
       spreadMethod="pad"
       gradientTransform="matrix(220.92111,0,0,-220.92111,116.43275,416.72342)"
       gradientUnits="userSpaceOnUse"
       y2="0"
       x2="1"
       y1="0"
       x1="0"><stop
         id="stop56"
         offset="0"
         style="stop-opacity:1;stop-color:#002d4e" /><stop
         id="stop58"
         offset="1"
         style="stop-opacity:1;stop-color:#008096" /></linearGradient><linearGradient
       id="linearGradient84"
       spreadMethod="pad"
       gradientTransform="matrix(220.07655,0,0,-220.07655,116.41307,537.85773)"
       gradientUnits="userSpaceOnUse"
       y2="0"
       x2="1"
       y1="0"
       x1="0"><stop
         id="stop76"
         offset="0"
         style="stop-opacity:1;stop-color:#00617c" /><stop
         id="stop78"
         offset="0.0615389"
         style="stop-opacity:1;stop-color:#00617c" /><stop
         id="stop80"
         offset="0.558976"
         style="stop-opacity:1;stop-color:#06daf0" /><stop
         id="stop82"
         offset="1"
         style="stop-opacity:1;stop-color:#06daf0" /></linearGradient><linearGradient
       id="linearGradient104"
       spreadMethod="pad"
       gradientTransform="matrix(156.73442,0,0,-156.73442,116.41307,470.40323)"
       gradientUnits="userSpaceOnUse"
       y2="0"
       x2="1"
       y1="0"
       x1="0"><stop
         id="stop100"
         offset="0"
         style="stop-opacity:1;stop-color:#00e5ff" /><stop
         id="stop102"
         offset="1"
         style="stop-opacity:1;stop-color:#00617c" /></linearGradient><linearGradient
       id="linearGradient124"
       spreadMethod="pad"
       gradientTransform="matrix(158.3204,0,0,-158.3204,273.03412,412.90399)"
       gradientUnits="userSpaceOnUse"
       y2="0"
       x2="1"
       y1="0"
       x1="0"><stop
         id="stop120"
         offset="0"
         style="stop-opacity:1;stop-color:#009eff" /><stop
         id="stop122"
         offset="1"
         style="stop-opacity:1;stop-color:#00617c" /></linearGradient><linearGradient
       id="linearGradient144"
       spreadMethod="pad"
       gradientTransform="matrix(156.74057,0,0,-156.74057,116.43275,352.42291)"
       gradientUnits="userSpaceOnUse"
       y2="0"
       x2="1"
       y1="0"
       x1="0"><stop
         id="stop140"
         offset="0"
         style="stop-opacity:1;stop-color:#00e5ff" /><stop
         id="stop142"
         offset="1"
         style="stop-opacity:1;stop-color:#00617c" /></linearGradient></defs><g
     transform="matrix(1.3333333,0,0,-1.3333333,0,1133.76)"
     id="g10"><g
       id="g12"><g
         clip-path="url(#clipPath18)"
         id="g14"><g
           transform="translate(545.1401,428.3659)"
           id="g20"><path
             id="path22"
             style="fill:#414445;fill-opacity:1;fill-rule:nonzero;stroke:none"
             d="m 0,0 c -4.105,2.822 -10.602,7.486 -16.883,11.997 -5.88,4.221 -11.433,8.208 -14.92,10.613 -0.021,0.015 -0.043,0.03 -0.065,0.044 l -0.484,0.323 c -7.648,5.094 -9.957,6.631 -9.957,15.882 v 27.584 c 0,4.798 3.043,10.144 7.411,10.144 H 0.389 c 2.77,0 5.015,2.245 5.015,5.015 v 7.455 c 0,2.77 -2.245,5.015 -5.015,5.015 h -35.287 c -15.235,0 -27.629,-12.394 -27.629,-27.629 V 36.374 c 0,-11.737 5.261,-20.26 17.591,-28.494 8.433,-5.903 18.583,-13.226 30.199,-21.784 7.849,-5.708 10.112,-7.672 10.112,-14.83 v -35.039 c 0,-4.799 -3.044,-10.145 -7.411,-10.145 h -45.228 c -2.77,0 -5.015,-2.245 -5.015,-5.015 v -7.455 c 0,-2.769 2.245,-5.014 5.015,-5.014 h 45.228 c 15.235,0 27.629,12.393 27.629,27.629 v 35.039 c 0,5.822 0,17.939 -15.593,28.734" /></g><g
           transform="translate(654.5771,365.3366)"
           id="g24"><path
             id="path26"
             style="fill:#414445;fill-opacity:1;fill-rule:nonzero;stroke:none"
             d="M 0,0 C 0,-4.929 -3.416,-10.887 -7.658,-10.887 H -32.76 c -4.175,0 -7.409,5.854 -7.409,10.887 v 129.475 c 0,5.033 3.234,10.886 7.409,10.886 H -7.658 C -3.416,140.361 0,134.403 0,129.475 Z M -7.658,157.849 H -32.76 c -14.973,0 -27.626,-12.999 -27.626,-28.374 L -60.386,0 c 0,-15.381 12.653,-28.374 27.626,-28.374 h 25.102 c 14.974,0 27.627,12.993 27.627,28.374 v 129.475 c 0,15.375 -12.653,28.374 -27.627,28.374" /></g><g
           transform="translate(787.0713,522.4377)"
           id="g28"><path
             id="path30"
             style="fill:#414445;fill-opacity:1;fill-rule:nonzero;stroke:none"
             d="m 0,0 h -9.939 c -2.77,0 -5.016,-2.245 -5.016,-5.015 V -133.683 L -47.57,-3.793 C -48.13,-1.563 -50.135,0 -52.435,0 h -17.891 c -2.77,0 -5.016,-2.245 -5.016,-5.015 v -175.444 c 0,-2.77 2.246,-5.015 5.016,-5.015 h 10.188 c 2.77,0 5.015,2.245 5.015,5.015 v 123.978 l 30.119,-125.152 c 0.542,-2.253 2.558,-3.841 4.875,-3.841 H 0 c 2.771,0 5.016,2.245 5.016,5.015 V -5.015 C 5.016,-2.245 2.771,0 0,0" /></g><g
           transform="translate(842.7324,507.7761)"
           id="g32"><path
             id="path34"
             style="fill:#414445;fill-opacity:1;fill-rule:nonzero;stroke:none"
             d="m 0,0 h -10.188 c -2.77,0 -5.015,-2.246 -5.015,-5.015 v -20.129 c 0,-2.77 2.245,-5.015 5.015,-5.015 H 0 c 2.77,0 5.016,2.245 5.016,5.015 V -5.015 C 5.016,-2.246 2.77,0 0,0" /></g><g
           transform="translate(842.7324,472.2399)"
           id="g36"><path
             id="path38"
             style="fill:#414445;fill-opacity:1;fill-rule:nonzero;stroke:none"
             d="m 0,0 h -10.188 c -2.77,0 -5.015,-2.246 -5.015,-5.015 v -125.247 c 0,-2.769 2.245,-5.014 5.015,-5.014 H 0 c 2.77,0 5.016,2.245 5.016,5.014 V -5.015 C 5.016,-2.246 2.77,0 0,0" /></g><g
           transform="translate(948.8428,522.4377)"
           id="g40"><path
             id="path42"
             style="fill:#414445;fill-opacity:1;fill-rule:nonzero;stroke:none"
             d="m 0,0 h -37.772 c -15.236,0 -27.629,-12.394 -27.629,-27.629 v -130.216 c 0,-15.236 12.393,-27.629 27.629,-27.629 h 35.287 c 2.769,0 5.015,2.245 5.015,5.015 v 7.455 c 0,2.769 -2.246,5.014 -5.015,5.014 h -35.287 c -4.368,0 -7.412,5.346 -7.412,10.145 v 130.216 c 0,4.798 3.044,10.144 7.412,10.144 H 0 c 2.77,0 5.015,2.245 5.015,5.015 v 7.455 C 5.015,-2.245 2.77,0 0,0" /></g></g></g><g
       id="g44"><g
         id="g46"><g
           id="g52"><g
             id="g54"><path
               id="path62"
               style="fill:url(#linearGradient60);stroke:none"
               d="M 262.402,505.948 134.17,432.949 c -0.006,0 -0.012,0 -0.026,-0.006 v 0 l -2.838,-1.619 -0.135,0.014 c -0.045,-0.027 -0.09,-0.059 -0.136,-0.084 v 0 c -0.232,-0.155 -0.476,-0.31 -0.721,-0.477 v 0 c -0.116,-0.078 -0.24,-0.161 -0.362,-0.246 v 0 c -1.612,-1.109 -3.36,-2.554 -4.676,-4.231 v 0 c -0.329,-0.406 -0.645,-0.819 -0.942,-1.244 v 0 c -0.038,-0.052 -0.076,-0.104 -0.116,-0.161 v 0 c -0.587,-0.846 -1.115,-1.722 -1.592,-2.646 v 0 c -0.04,-0.064 -0.078,-0.134 -0.111,-0.206 v 0 c -0.554,-1.083 -1.038,-2.206 -1.477,-3.367 v 0 l -0.057,-0.161 c -0.065,-0.167 -0.123,-0.335 -0.18,-0.503 v 0 c -0.336,-0.929 -0.639,-1.889 -0.916,-2.87 v 0 c -1.355,-4.715 -2.258,-9.571 -2.8,-14.453 v 0 c -0.007,-0.078 -0.013,-0.149 -0.026,-0.227 v 0 c -0.077,-0.734 -0.154,-1.47 -0.219,-2.205 v 0 c -0.071,-0.812 -0.129,-1.619 -0.187,-2.431 v 0 c -0.097,-1.516 -0.168,-3.032 -0.2,-4.554 v 0 c -0.149,-7.139 0.503,-14.35 2.483,-21.206 v 0 c 0,0 3.361,-13.97 16.853,-21.658 v 0 l 41.31,-23.799 v 58.808 c 0,0 0.265,7.301 0.265,7.719 v 0 c 0,3.078 1.599,5.875 4.069,7.461 v 0 l 0.02,0.015 10.074,5.727 0.116,0.065 0.007,0.006 123.51,70.185 c 1.02,0.574 2.077,1.064 3.155,1.471 v 0 c 0.721,0.264 1.457,0.49 2.198,0.677 v 0 c 0.369,0.097 0.742,0.18 1.116,0.258 v 0 c 0.749,0.148 1.503,0.258 2.265,0.322 v 0 c 0.754,0.072 1.515,0.104 2.276,0.091 v 0 c 0.761,-0.013 1.523,-0.059 2.277,-0.148 v 0 c 0.755,-0.09 1.509,-0.22 2.251,-0.387 v 0 c 0.374,-0.091 0.748,-0.181 1.116,-0.284 v 0 c 0.025,-0.006 0.045,-0.02 0.071,-0.026 v 0 c 0.38,-0.135 0.728,-0.245 1.025,-0.322 v 0 c 2.225,-0.542 4.444,-0.471 4.444,-0.471 v 0 l -2.67,1.471 -5.282,2.844 h 0.122 l -2.851,0.755 -42.471,25.088 c -3.38,1.937 -7.144,2.904 -10.91,2.904 v 0 c -3.758,0 -7.517,-0.964 -10.89,-2.89" /></g></g></g></g><g
       id="g64"><g
         id="g66"><g
           id="g72"><g
             id="g74"><path
               id="path86"
               style="fill:url(#linearGradient84);stroke:none"
               d="m 261.538,626.343 -119.46,-68.283 -7.759,-4.211 h -0.007 l -3.825,-2.083 c -0.187,-0.116 -0.374,-0.245 -0.56,-0.374 v 0 c -1.613,-1.11 -3.361,-2.554 -4.677,-4.232 v 0 h 0.007 c -1.871,-2.251 -3.199,-4.824 -4.244,-7.623 v 0 l -0.057,-0.162 c -0.407,-1.09 -0.768,-2.218 -1.098,-3.373 v 0 c -1.805,-6.281 -2.805,-12.809 -3.231,-19.317 v 0 c -0.193,-3.043 -0.264,-6.113 -0.174,-9.183 v 0 c -0.213,-7.417 0.4,-14.931 2.457,-22.058 v 0 c 0,0 3.36,-13.97 16.853,-21.658 v 0 l 29.933,-17.305 h 10.758 v 57.254 c 0,0 2.2,2.025 1.67,2.767 v 0 c -1.025,1.432 -1.624,3.16 -1.624,5.03 v 0 c 0,3.077 1.624,5.792 4.095,7.379 v 0 l -0.006,0.097 10.073,5.727 0.116,0.065 0.008,0.006 123.51,70.186 c 1.019,0.573 2.077,1.064 3.154,1.469 v 0 c 0.722,0.265 1.458,0.491 2.199,0.678 v 0 c 0.368,0.096 0.742,0.18 1.116,0.258 v 0 c 0.748,0.148 1.503,0.258 2.264,0.323 v 0 c 0.755,0.07 1.515,0.102 2.277,0.09 v 0 c 0.761,-0.013 1.522,-0.059 2.277,-0.149 v 0 c 0.754,-0.09 1.509,-0.218 2.251,-0.387 v 0 c 0.373,-0.09 0.748,-0.18 1.115,-0.283 v 0 c 0.026,-0.007 0.046,-0.019 0.072,-0.026 v 0 c 0.38,-0.135 0.728,-0.245 1.025,-0.323 v 0 c 2.225,-0.541 4.443,-0.47 4.443,-0.47 v 0 l -2.67,1.47 -5.276,2.844 h 0.116 l -2.689,1.561 -42.632,24.283 c -3.38,1.937 -7.144,2.904 -10.91,2.904 v 0 c -3.758,0 -7.517,-0.964 -10.89,-2.891" /></g></g></g></g><g
       id="g88"><g
         id="g90"><g
           id="g96"><g
             id="g98"><path
               id="path106"
               style="fill:url(#linearGradient104);stroke:none"
               d="m 134.195,553.836 c -0.464,-0.18 -1.96,-0.909 -3.708,-2.07 v 0 c -0.187,-0.116 -0.374,-0.245 -0.56,-0.374 v 0 c -1.613,-1.11 -3.361,-2.554 -4.677,-4.232 v 0 c -1.864,-2.251 -3.192,-4.824 -4.237,-7.623 v 0 l -0.057,-0.162 c -0.407,-1.09 -0.768,-2.218 -1.098,-3.373 v 0 c -1.805,-6.281 -2.805,-12.809 -3.231,-19.317 v 0 c -0.193,-3.043 -0.264,-6.113 -0.174,-9.183 v 0 c -0.213,-7.417 0.4,-14.931 2.457,-22.058 v 0 c 0,0 3.36,-13.97 16.853,-21.658 v 0 l 29.933,-17.305 97.99,-56.653 c 0.026,-0.013 0.045,-0.033 0.071,-0.046 v 0 l 1.916,-1.109 c 0.044,-0.026 0.096,-0.046 0.141,-0.071 v 0 c 2.212,-1.064 4.65,-1.657 7.231,-1.677 v 0 h 0.102 v 64.632 c -0.006,0.006 -95.023,54.945 -95.023,54.945 v 0 l -9.423,5.45 -0.052,0.031 c -0.068,0.039 -0.137,0.078 -0.205,0.118 v 0 c -0.116,0.067 -0.233,0.135 -0.349,0.201 v 0 c -0.162,0.095 -0.324,0.188 -0.485,0.281 v 0 c -0.205,0.119 -0.408,0.236 -0.612,0.355 v 0 c -0.243,0.14 -0.487,0.281 -0.729,0.421 v 0 c -0.279,0.162 -0.558,0.323 -0.838,0.484 v 0 c -0.312,0.181 -0.623,0.361 -0.935,0.542 v 0 c -0.342,0.197 -0.684,0.395 -1.025,0.592 v 0 c -0.369,0.214 -0.738,0.427 -1.106,0.64 v 0 c -0.392,0.227 -0.784,0.454 -1.177,0.681 v 0 l -1.237,0.716 c -0.431,0.248 -0.861,0.498 -1.291,0.746 v 0 c -0.445,0.257 -0.888,0.514 -1.334,0.771 v 0 c -0.455,0.264 -0.911,0.528 -1.367,0.792 v 0 c -0.464,0.268 -0.928,0.536 -1.391,0.805 v 0 c -0.47,0.271 -0.939,0.542 -1.408,0.814 v 0 l -1.414,0.817 c -0.47,0.272 -0.939,0.544 -1.41,0.816 v 0 c -0.465,0.269 -0.932,0.539 -1.398,0.808 v 0 c -0.458,0.266 -0.917,0.53 -1.376,0.797 v 0 c -0.448,0.259 -0.896,0.518 -1.344,0.777 v 0 c -0.436,0.251 -0.871,0.504 -1.305,0.755 v 0 c -0.419,0.243 -0.837,0.484 -1.256,0.726 v 0 c -0.399,0.23 -0.797,0.462 -1.197,0.692 v 0 c -0.375,0.218 -0.752,0.436 -1.128,0.652 v 0 c -0.351,0.204 -0.701,0.406 -1.051,0.609 v 0 c -0.322,0.186 -0.643,0.372 -0.966,0.559 v 0 l -0.868,0.502 c -0.255,0.147 -0.509,0.294 -0.764,0.442 v 0 c -0.216,0.125 -0.432,0.25 -0.649,0.375 v 0 c -0.176,0.102 -0.351,0.203 -0.527,0.304 v 0 c -0.071,0.042 -0.143,0.081 -0.213,0.124 v 0 c -0.156,0.096 -0.322,0.173 -0.471,0.283 v 0 c -0.166,0.124 -0.317,0.267 -0.464,0.412 v 0 c -0.189,0.19 -0.374,0.386 -0.556,0.584 v 0 c -0.246,0.268 -0.484,0.542 -0.717,0.822 v 0 c -0.283,0.34 -0.555,0.69 -0.818,1.045 v 0 c -0.299,0.407 -0.586,0.824 -0.858,1.249 v 0 c -0.297,0.467 -0.577,0.946 -0.837,1.436 v 0 c -0.277,0.522 -0.529,1.056 -0.755,1.602 v 0 c -0.237,0.572 -0.443,1.157 -0.614,1.753 v 0 c -0.178,0.618 -0.317,1.247 -0.412,1.885 v 0 c -0.098,0.66 -0.15,1.329 -0.149,1.998 v 0 c 0.001,0.701 0.06,1.401 0.176,2.093 v 0 c 0.123,0.738 0.312,1.465 0.559,2.171 v 0 c 0.27,0.771 0.61,1.516 1.005,2.231 v 0 c 0.441,0.796 0.95,1.554 1.51,2.271 v 0 c 0.181,0.279 0.645,0.846 1.355,1.272 v 0 c 0.026,0.019 0.051,0.032 0.064,0.045 v 0 c 0.03,0.021 0.036,0.032 0.02,0.032 v 0 c -0.018,0 -0.064,-0.014 -0.137,-0.045" /></g></g></g></g><g
       id="g108"><g
         id="g110"><g
           id="g116"><g
             id="g118"><path
               id="path126"
               style="fill:url(#linearGradient124);stroke:none"
               d="m 414.107,553.907 c 0.723,-0.427 1.194,-0.994 1.374,-1.271 v 0 c 0.911,-1.399 1.821,-2.666 2.392,-4.258 v 0 c 0.534,-1.489 0.809,-3.064 0.806,-4.647 v 0 c -0.005,-2.266 -0.577,-4.526 -1.551,-6.565 v 0 c -0.6,-1.256 -1.312,-2.496 -2.308,-3.481 v 0 c -1.083,-1.072 -2.586,-1.701 -3.893,-2.456 v 0 c -1.671,-0.967 -3.341,-1.933 -5.012,-2.899 v 0 c -2.254,-1.304 -4.509,-2.608 -6.762,-3.911 v 0 c -2.739,-1.584 -5.477,-3.168 -8.216,-4.751 v 0 c -3.124,-1.807 -6.249,-3.614 -9.374,-5.422 v 0 c -3.412,-1.973 -6.824,-3.946 -10.236,-5.919 v 0 c -3.6,-2.082 -7.201,-4.165 -10.801,-6.248 v 0 l -11.071,-6.402 c -3.682,-2.13 -7.364,-4.258 -11.046,-6.388 v 0 c -3.575,-2.067 -7.149,-4.134 -10.724,-6.201 v 0 c -3.367,-1.949 -6.736,-3.897 -10.105,-5.845 v 0 c -3.063,-1.771 -6.127,-3.543 -9.191,-5.315 v 0 c -2.66,-1.539 -5.32,-3.078 -7.981,-4.616 v 0 c -2.159,-1.249 -4.317,-2.496 -6.475,-3.744 v 0 l -4.673,-2.703 -2.576,-1.49 -0.416,-0.24 -13.124,-7.475 v -0.097 -25.193 -1.44 -38.006 h 0.045 c 2.521,0 4.908,0.549 7.056,1.542 v 0 c 0.064,0.026 0.129,0.058 0.187,0.09 v 0 l 2.399,1.387 95.204,55.041 v -50.875 l -104.891,-60.684 -0.11,-0.065 v -3.87 -5.482 -19.35 -28.964 -3.87 h 0.142 c 2.522,0 4.908,0.547 7.056,1.542 v 0 l 2.831,1.644 128.988,74.9 c 13.492,7.688 16.852,21.658 16.852,21.658 v 0 c 1.528,5.289 2.264,10.797 2.451,16.311 v 0 3.869 2.753 47.701 75.035 c 0,3.157 0.038,6.174 -0.481,9.299 v 0 c -0.534,3.228 -1.245,6.429 -2.163,9.569 v 0 c -0.336,1.154 -0.697,2.283 -1.11,3.373 v 0 l -0.058,0.162 c -0.123,0.329 -0.252,0.652 -0.387,0.974 v 0 c -1,2.424 -2.244,4.663 -3.915,6.649 v 0 c -1.334,1.677 -3.108,3.122 -4.747,4.231 v 0 c -2.012,1.374 -3.812,2.244 -4.334,2.444 v 0 c -0.075,0.031 -0.123,0.046 -0.141,0.046 v 0 c -0.023,0 0.005,-0.026 0.089,-0.077" /></g></g></g></g><g
       id="g128"><g
         id="g130"><g
           id="g136"><g
             id="g138"><path
               id="path146"
               style="fill:url(#linearGradient144);stroke:none"
               d="m 134.221,432.976 c -0.012,-0.007 -0.032,-0.013 -0.051,-0.027 v 0 c -0.006,0 -0.012,0 -0.026,-0.006 v 0 c -0.186,-0.077 -0.49,-0.212 -0.876,-0.412 v 0 c -0.556,-0.291 -1.278,-0.69 -2.097,-1.193 v 0 c -0.045,-0.027 -0.09,-0.059 -0.136,-0.084 v 0 c -0.232,-0.155 -0.476,-0.31 -0.721,-0.477 v 0 c -0.116,-0.078 -0.24,-0.161 -0.362,-0.246 v 0 c -1.612,-1.109 -3.36,-2.554 -4.676,-4.231 v 0 c -0.329,-0.406 -0.645,-0.819 -0.942,-1.244 v 0 c -0.038,-0.052 -0.076,-0.104 -0.116,-0.161 v 0 c -0.587,-0.846 -1.115,-1.722 -1.592,-2.646 v 0 c -0.04,-0.064 -0.078,-0.134 -0.111,-0.206 v 0 c -0.554,-1.083 -1.038,-2.206 -1.477,-3.367 v 0 l -0.057,-0.161 c -0.065,-0.167 -0.123,-0.335 -0.18,-0.503 v 0 c -0.336,-0.929 -0.639,-1.889 -0.916,-2.87 v 0 c -1.355,-4.715 -2.258,-9.571 -2.8,-14.453 v 0 c -0.007,-0.078 -0.013,-0.149 -0.026,-0.227 v 0 c -0.077,-0.734 -0.154,-1.47 -0.219,-2.205 v 0 c -0.071,-0.812 -0.129,-1.619 -0.187,-2.431 v 0 c -0.097,-1.516 -0.168,-3.032 -0.2,-4.554 v 0 c -0.149,-7.139 0.503,-14.35 2.483,-21.206 v 0 c 0,0 3.361,-13.97 16.853,-21.658 v 0 l 130.012,-74.906 c 0.013,-0.007 0.019,-0.013 0.026,-0.013 v 0 c 2.187,-1.052 4.625,-1.646 7.204,-1.664 v 0 h 0.142 v 3.869 l -0.019,33.964 -0.013,19.917 v 3.87 c 0,0 -139.126,80.904 -141.002,83.368 v 0 c -1.555,2.038 -2.342,4.605 -2.342,7.165 v 0 c 0,0.258 0.006,0.516 0.026,0.768 v 0 c 0,0.013 -0.006,0.032 -0.006,0.045 v 0 c 0.322,2.193 1.257,4.522 3.102,6.882 v 0 c -0.006,-0.006 -0.02,-0.006 -0.026,-0.006 v 0 c 0.206,0.284 0.671,0.85 1.381,1.276 v 0 c 0.084,0.052 0.112,0.078 0.088,0.078 v 0 c -0.018,0 -0.065,-0.015 -0.141,-0.045" /></g></g></g></g></g></svg>