<svg id="Ebene_1" data-name="Ebene 1" xmlns="http://www.w3.org/2000/svg" viewBox="0 0 635.29 621.98"><path d="M984.59,187.28c-9.52,9.64-19.12,19.21-28.55,28.94C885.87,288.7,826,369,774.56,455.68c-44.18,74.43-81.51,152.2-113.4,232.62-2.61,6.57-6.69,11.26-13.65,13.12a8.43,8.43,0,0,1-1.6.15,13.72,13.72,0,0,0-5.38,0c-6.27-.66-10.65-4.12-13.67-9.44-11.82-20.8-23.74-41.55-36.1-62-23-38.08-47.14-75.34-74.43-110.52-27.45-35.4-58.27-67.64-91.41-97.72-3.65-3.31-6.45-7-6.83-12.17a23.53,23.53,0,0,0,0-7,4.31,4.31,0,0,1,.41-2.84,1,1,0,0,1,.31,1.1,4.78,4.78,0,0,0-.19-2.06c1.7-12.57,11.81-23.58,25-27.18.69-.19,1.39-.31,2.09-.46,1.55.63,3-.19,4.48-.43,6.55-1.07,13-.74,19.59-.09,3.36.34,6.65,1.58,10.09,1.07,12.66,2.22,24.84,6.15,36.88,10.52,36.89,13.42,71.86,31,106.55,49.21,1.88,1,2.79.87,4.16-.75Q704.1,340,787,254.86c.69-.7,1.44-1.35,2.16-2a71.3,71.3,0,0,0,10.82-11q8-8.61,16.64-16.66a55.49,55.49,0,0,0,9.93-9.74c8.94-9.2,18.31-18,27.69-26.7,29.34-27.38,59.32-54,92.24-77.11,14.28-10,29-19.24,45.35-25.71,9.55-3.8,19.38-6.47,29.77-6,9,.42,17.26,3,24,9.16a20.79,20.79,0,0,1,7.19,14.1,20.82,20.82,0,0,0,0,6.45c-.45,5.89-3.24,10.81-6.52,15.48-5.37,7.63-11.9,14.26-18.58,20.72-11.73,11.35-23.55,22.6-35.34,33.9C989.28,181.71,986.92,184.48,984.59,187.28Z" transform="translate(-417.84 -79.86)" style="fill:#61af1e"/><path d="M479.89,371.8c-1,.81-2,.46-3.08.28-9.58-1.65-19.17-2.27-28.81-.46-.79.15-1.61.34-2.27-.37a33.09,33.09,0,0,1,7.33-1.19,87.69,87.69,0,0,1,13.56,0A89.76,89.76,0,0,1,479.89,371.8Z" transform="translate(-417.84 -79.86)" style="fill:#60ae1c"/><path d="M800,241.83a2.16,2.16,0,0,1-.79,1.9c-3,3-6,6-9,9-.29.29-.61.75-1.06.16C792.59,249,796.24,245.37,800,241.83Z" transform="translate(-417.84 -79.86)" style="fill:#58ab11"/><path d="M826.55,215.43c.1.14.3.37.28.4a99.53,99.53,0,0,1-9.18,9.19c-.22.19-.68.11-1,.15Z" transform="translate(-417.84 -79.86)" style="fill:#58ab11"/><path d="M984.59,187.28c.65-2.67,3.22-3.71,4.78-5.62.75-.91,1.49-2.12,3-1.93Z" transform="translate(-417.84 -79.86)" style="fill:#5aab13"/><path d="M466.62,370.06H453.06A41.14,41.14,0,0,1,466.62,370.06Z" transform="translate(-417.84 -79.86)" style="fill:#61af1e"/><path d="M418.12,402.69a10.86,10.86,0,0,1,0,7A23.87,23.87,0,0,1,418.12,402.69Z" transform="translate(-417.84 -79.86)" style="fill:#4aa400"/><path d="M1052.83,109.63a9.59,9.59,0,0,1,0-6.45A17.07,17.07,0,0,1,1052.83,109.63Z" transform="translate(-417.84 -79.86)" style="fill:#4ca401"/><path d="M640.53,701.59a6.59,6.59,0,0,1,5.38,0A13.53,13.53,0,0,1,640.53,701.59Z" transform="translate(-417.84 -79.86)" style="fill:#4ba401"/><path d="M418.65,398.89c.74.85.54,1.77.14,3.2-.12-1.07-.19-1.65-.26-2.24Z" transform="translate(-417.84 -79.86)" style="fill:#51a707"/></svg>